<?xml version="1.0" standalone="no"?>
<!DOCTYPE svg PUBLIC "-//W3C//DTD SVG 20010904//EN"
 "http://www.w3.org/TR/2001/REC-SVG-20010904/DTD/svg10.dtd">
<svg version="1.0" xmlns="http://www.w3.org/2000/svg"
 width="512.000000pt" height="512.000000pt" viewBox="0 0 512.000000 512.000000"
 preserveAspectRatio="xMidYMid meet">
<metadata>
Created by potrace 1.11, written by Peter Selinger 2001-2013
</metadata>
<g transform="translate(0.000000,512.000000) scale(0.100000,-0.100000)"
fill="#000000" stroke="none">
<path d="M2379 5116 c-2 -2 -35 -6 -74 -9 -38 -4 -122 -15 -185 -27 -945 -164
-1727 -855 -2008 -1775 -42 -135 -58 -209 -89 -405 -18 -113 -24 -453 -11
-590 20 -207 85 -476 163 -676 120 -307 291 -578 520 -823 88 -93 168 -168
280 -260 278 -227 696 -422 1060 -496 224 -45 567 -65 755 -44 104 12 169 20
194 25 12 2 37 7 56 10 355 63 749 238 1050 466 152 114 219 175 345 309 338
361 585 866 651 1329 2 19 6 44 9 55 19 95 27 458 13 605 -21 205 -71 430
-136 605 -52 141 -72 187 -132 305 -212 414 -529 760 -930 1014 -246 155 -608
296 -875 341 -16 3 -39 7 -51 9 -12 2 -45 7 -74 11 -29 4 -62 9 -74 12 -24 5
-452 14 -457 9z m431 -199 c8 -3 40 -8 70 -11 30 -3 80 -10 110 -16 30 -6 66
-14 80 -16 73 -14 259 -69 315 -93 11 -5 61 -26 110 -46 664 -275 1195 -903
1366 -1614 29 -121 37 -170 58 -351 9 -75 7 -422 -3 -470 -2 -14 -10 -60 -16
-103 -16 -108 -17 -113 -45 -221 -61 -234 -143 -430 -268 -637 -279 -466 -722
-828 -1232 -1009 -69 -25 -178 -59 -210 -66 -94 -21 -289 -56 -355 -62 -91
-10 -422 -8 -480 2 -19 3 -53 8 -75 10 -284 30 -639 159 -929 338 -313 193
-620 511 -797 823 -110 196 -233 506 -255 645 -3 19 -8 38 -10 41 -1 3 -8 34
-14 70 -5 35 -12 75 -15 89 -12 69 -16 120 -19 295 -4 198 7 348 34 470 5 22
12 56 15 75 3 19 17 76 30 125 205 751 784 1365 1525 1618 144 49 307 88 426
102 27 3 78 10 114 14 70 8 445 7 470 -2z"/>
<path d="M2419 4716 c-2 -2 -35 -6 -74 -10 -379 -33 -765 -184 -1081 -422 -98
-74 -141 -112 -238 -210 -106 -106 -129 -134 -215 -253 -231 -321 -361 -665
-400 -1061 -9 -83 -7 -394 2 -425 3 -11 8 -46 12 -79 16 -151 77 -370 151
-544 203 -474 579 -868 1042 -1091 l82 -40 1 42 c1 23 3 60 4 82 28 501 27
528 -20 631 -26 58 -50 84 -154 164 -52 41 -78 69 -97 107 l-26 53 2 437 c2
526 4 600 25 763 1 8 5 40 9 71 8 65 6 55 40 219 62 291 178 647 289 880 53
111 133 212 195 244 30 15 33 15 51 -3 18 -18 19 -43 21 -587 5 -1790 9 -2466
14 -2581 10 -204 16 -358 21 -503 3 -74 8 -137 13 -141 6 -7 30 -12 117 -25
17 -3 36 -7 43 -9 67 -23 556 -25 577 -3 2 2 6 64 9 138 3 74 8 173 11 220 3
47 7 128 10 180 9 184 16 316 20 380 5 81 18 360 19 419 l1 44 -65 21 c-98 32
-176 82 -267 172 -108 108 -116 133 -117 374 -1 153 7 344 19 490 2 25 7 77
10 115 3 39 7 84 9 100 3 17 7 66 11 110 4 44 9 87 10 95 1 8 6 49 10 90 4 41
9 82 10 90 2 8 6 49 10 90 4 41 8 82 10 90 2 8 6 44 10 80 10 101 7 97 80 97
63 0 65 0 65 -26 0 -14 2 -341 3 -726 l2 -700 55 0 c30 -1 60 1 65 2 7 2 10
247 9 716 0 391 2 717 4 724 2 7 29 12 73 12 l69 0 2 -727 3 -726 63 -1 c50
-1 62 2 63 14 1 9 2 336 3 726 l1 710 75 2 75 2 0 -727 0 -727 65 0 65 0 2
690 c1 380 2 706 2 726 l1 37 50 -1 c55 0 52 5 66 -112 4 -33 8 -71 10 -85 1
-14 6 -52 9 -85 3 -33 8 -71 10 -85 2 -14 7 -59 11 -100 3 -41 8 -82 9 -91 2
-9 6 -54 10 -100 4 -46 8 -86 10 -89 1 -3 6 -48 10 -100 3 -52 8 -111 10 -130
9 -85 19 -336 19 -455 -1 -234 -11 -275 -94 -368 -81 -90 -203 -168 -315 -202
l-40 -12 1 -79 c1 -70 8 -229 19 -424 2 -36 6 -117 10 -180 3 -63 8 -151 10
-195 2 -44 7 -136 11 -205 3 -69 7 -143 9 -165 1 -22 6 -39 11 -38 5 1 45 15
89 31 450 166 864 524 1107 957 123 218 227 522 253 740 3 28 8 66 11 85 16
101 9 437 -11 555 -88 519 -322 946 -710 1295 -180 162 -447 322 -673 403 -82
30 -262 82 -312 91 -19 3 -46 8 -60 11 -14 3 -45 8 -70 11 -25 3 -53 8 -63 10
-20 6 -383 15 -388 10z"/>
</g>
</svg>
